 http://img88.imageshack.us/img88/3281/thethingo.jpg


Verenigde Staten / Canada
Horror / Mystery
103 minuten

geregisseerd door Matthijs van Heijningen Jr.
met Mary Elizabeth Winstead, Eric Christian Olsen en Joel Edgerton

In een onderzoekskamp op Antartica leidt de ontdekking van een buitenaards schip tot een confrontatie tussen de studente Kate Lloyd en de wetenschapper Dr. Sander Halvorson. Terwijl Dr. Halvorson zich blijft richten op zijn onderzoek gaat Kate samen met de helikopterpiloot Sam Carter op zoek naar de buitenaardse levensvorm.



Nl subs



Screenshots:
 
http://www.hotimg.com/image/ufVsQxB 
http://www.hotimg.com/image/YrgFYjC 
http://www.hotimg.com/image/9VJWkxJ 
http://www.hotimg.com/image/v8W3uYk




INFO;

Format                                   : Matroska
Format version                           : Version 2
File size                                : 2.84 GiB
Duration                                 : 1h 43mn
Overall bit rate                         : 3 948 Kbps
Encoded date                             : UTC 2012-01-13 23:03:41
Writing application                      : mkvmerge v5.2.1 ('A Far Off Place') built on Jan  2 2012 23:21:10
Writing library                          : libebml v1.2.3 + libmatroska v1.3.0

Video
ID                                       : 1
Format                                   : MPEG-4 Visual
Format profile                           : Advanced Simple@L5
Format settings, BVOP                    : Yes
Format settings, QPel                    : No
Format settings, GMC                     : No warppoints
Format settings, Matrix                  : Default (H.263)
Codec ID                                 : XVID
Codec ID/Hint                            : XviD
Duration                                 : 1h 43mn
Bit rate                                 : 3 422 Kbps
Width                                    : 1 280 pixels
Height                                   : 544 pixels
Display aspect ratio                     : 2.35:1
Frame rate                               : 23.976 fps
Color space                              : YUV
Chroma subsampling                       : 4:2:0
Bit depth                                : 8 bits
Scan type                                : Progressive
Compression mode                         : Lossy
Bits/(Pixel*Frame)                       : 0.205
Stream size                              : 2.46 GiB (87%)
Writing library                          : XviD 64
Default                                  : Yes
Forced                                   : No

Audio
ID                                       : 2
Format                                   : AC-3
Format/Info                              : Audio Coding 3
Mode extension                           : CM (complete main)
Muxing mode                              : Header stripping
Codec ID                                 : A_AC3
Duration                                 : 1h 43mn
Bit rate mode                            : Constant
Bit rate                                 : 448 Kbps
Channel(s)                               : 6 channels
Channel positions                        : Front: L C R, Side: L R, LFE
Sampling rate                            : 48.0 KHz
Bit depth                                : 16 bits
Compression mode                         : Lossy
Stream size                              : 330 MiB (11%)
Default                                  : Yes
Forced                                   : No

Text
ID                                       : 3
Format                                   : UTF-8
Codec ID                                 : S_TEXT/UTF8
Codec ID/Info                            : UTF-8 Plain Text
Default                                  : Yes
Forced                                   : No



 
http://www.imdb.com/title/tt0905372/ 
http://www.moviemeter.nl/film/70576




Deze film wordt u aangeboden door het DutchReleaseTeam.
Voor de reviews van de nieuwste films, muziek, series, games etc
ga dan eens naar http://www.hetmultimediacafe.be/